<svg width="67" height="67" viewBox="0 0 67 67" fill="none" xmlns="http://www.w3.org/2000/svg">
<circle cx="33.5" cy="33.5" r="33.5" fill="#FF372D"/>
<path d="M48.6251 16.9996C47.6858 16.6861 46.9383 15.9386 46.6254 14.9999C46.5446 14.757 46.3184 14.5938 46.0625 14.5938C45.8066 14.5938 45.5804 14.757 45.499 14.9999C45.1861 15.9386 44.4386 16.6861 43.4993 16.9996C43.257 17.0804 43.0938 17.3066 43.0938 17.5625C43.0938 17.8184 43.257 18.0446 43.4999 18.1254C44.4392 18.4389 45.1867 19.1864 45.4996 20.1251C45.5804 20.368 45.8066 20.5312 46.0625 20.5312C46.3184 20.5312 46.5446 20.368 46.626 20.1251C46.9389 19.1864 47.6864 18.4389 48.6257 18.1254C48.868 18.0446 49.0312 17.8184 49.0312 17.5625C49.0312 17.3066 48.868 17.0804 48.6251 16.9996ZM46.0625 18.6336C45.7704 18.218 45.407 17.8546 44.9914 17.5625C45.407 17.2704 45.7704 16.907 46.0625 16.4914C46.3546 16.907 46.718 17.2704 47.1336 17.5625C46.718 17.8546 46.3546 18.218 46.0625 18.6336Z" fill="white"/>
<path d="M19.9375 23.5C20.1934 23.5 20.4196 23.3367 20.501 23.0939C20.8139 22.1552 21.5614 21.4076 22.5007 21.0941C22.743 21.0134 22.9062 20.7872 22.9062 20.5312C22.9062 20.2753 22.743 20.0491 22.5001 19.9684C21.5608 19.6549 20.8133 18.9073 20.5004 17.9686C20.4196 17.7258 20.1934 17.5625 19.9375 17.5625C19.6816 17.5625 19.4554 17.7258 19.374 17.9686C19.0611 18.9073 18.3136 19.6549 17.3743 19.9684C17.132 20.0491 16.9688 20.2753 16.9688 20.5312C16.9688 20.7872 17.132 21.0134 17.3749 21.0941C18.3142 21.4076 19.0617 22.1552 19.3746 23.0939C19.4554 23.3367 19.6816 23.5 19.9375 23.5ZM19.9375 19.4601C20.2296 19.8758 20.593 20.2391 21.0086 20.5312C20.5924 20.8234 20.2296 21.1867 19.9375 21.6024C19.6454 21.1867 19.282 20.8234 18.8664 20.5312C19.282 20.2391 19.6454 19.8758 19.9375 19.4601Z" fill="white"/>
<path d="M46.0625 27.6562H44.251C43.9393 21.7122 39.02 16.9688 33 16.9688C26.98 16.9688 22.0608 21.7122 21.749 27.6562H19.9375C19.6098 27.6562 19.3438 27.9217 19.3438 28.25C19.3438 35.581 25.1506 41.5791 32.4062 41.8914V45.4688H25.875C25.5472 45.4688 25.2812 45.7342 25.2812 46.0625V47.8438H24.6875C24.3597 47.8438 24.0938 48.1092 24.0938 48.4375V50.8125C24.0938 51.1408 24.3597 51.4062 24.6875 51.4062H41.3125C41.6402 51.4062 41.9062 51.1408 41.9062 50.8125V48.4375C41.9062 48.1092 41.6402 47.8438 41.3125 47.8438H40.7188V46.0625C40.7188 45.7342 40.4527 45.4688 40.125 45.4688H33.5938V41.8914C40.8494 41.5791 46.6562 35.581 46.6562 28.25C46.6562 27.9217 46.3902 27.6562 46.0625 27.6562ZM40.7188 50.2188H25.2812V49.0312H40.7188V50.2188ZM39.5312 47.8438H26.4688V46.6562H39.5312V47.8438ZM33 18.1562C38.5658 18.1562 43.0938 22.6842 43.0938 28.25C43.0938 33.8158 38.5658 38.3438 33 38.3438C27.4342 38.3438 22.9062 33.8158 22.9062 28.25C22.9062 22.6842 27.4342 18.1562 33 18.1562ZM33 40.7188C26.3233 40.7188 20.856 35.4445 20.5449 28.8438H21.7484C22.0608 34.7878 26.98 39.5312 33 39.5312C39.02 39.5312 43.9393 34.7878 44.251 28.8438H45.4545C45.144 35.4445 39.6767 40.7188 33 40.7188Z" fill="white"/>
<path d="M26.6402 30.7985L32.5768 24.862L33.4163 25.7015L27.4798 31.6381L26.6402 30.7985Z" fill="white"/>
<path d="M32.5765 30.7991L38.5131 24.8625L39.3526 25.7021L33.4161 31.6387L32.5765 30.7991Z" fill="white"/>
</svg>
