<svg width="67" height="67" viewBox="0 0 67 67" fill="none" xmlns="http://www.w3.org/2000/svg">
<circle cx="33.5" cy="33.5" r="33.5" fill="#B20421"/>
<path d="M32.1255 32.2794C32.0402 32.0985 31.8583 31.9833 31.6584 31.9833H29.2311L31.1241 24.8838C31.1867 24.6487 31.0771 24.4022 30.8611 24.2911C30.6452 24.1795 30.3806 24.2343 30.2262 24.4218L22.9929 33.2053C22.8658 33.3592 22.8395 33.5731 22.9247 33.7539C23.01 33.9348 23.1918 34.05 23.3918 34.05H25.8191L23.926 41.15C23.8634 41.3851 23.973 41.6316 24.1889 41.7427C24.2638 41.7814 24.345 41.8 24.4251 41.8C24.5754 41.8 24.7232 41.7344 24.8239 41.6114L32.0573 32.8281C32.1844 32.6741 32.2107 32.4602 32.1255 32.2794ZM25.5364 39.1211L26.9908 33.6667C27.0322 33.5117 26.999 33.3463 26.9014 33.2188C26.8038 33.0917 26.6524 33.0167 26.4917 33.0167H24.4865L29.5137 26.9123L28.0593 32.3667C28.0179 32.5217 28.051 32.6871 28.1486 32.8147C28.2463 32.9418 28.3977 33.0167 28.5584 33.0167H30.5635L25.5364 39.1211Z" fill="white"/>
<path d="M30.6251 17H24.4251C24.1399 17 23.9084 17.2315 23.9084 17.5166V19.5833C23.9084 19.8685 24.1399 20.0999 24.4251 20.0999H30.6251C30.9103 20.0999 31.1417 19.8685 31.1417 19.5833V17.5166C31.1417 17.2315 30.9103 17 30.6251 17ZM30.1084 19.0666H24.9417V18.0334H30.1084V19.0666H30.1084Z" fill="white"/>
<path d="M33.2956 19.0667H21.7542C20.6625 19.0667 19.7749 19.9548 19.7749 21.046V46.0207C19.7749 47.1118 20.6625 48 21.7542 48H33.2956C34.3867 48 35.2749 47.1118 35.2749 46.0207V21.046C35.2749 19.9548 34.3867 19.0667 33.2956 19.0667ZM34.2415 46.0207C34.2415 46.5425 33.8174 46.9667 33.2955 46.9667H21.7542C21.2324 46.9667 20.8082 46.5425 20.8082 46.0207V21.046C20.8082 20.5242 21.2324 20.1 21.7542 20.1H33.2956C33.8174 20.1 34.2416 20.5242 34.2416 21.046V46.0207H34.2415Z" fill="white"/>
<path d="M40.9584 17C40.1039 17 39.4084 17.6954 39.4084 18.55V22.6834C39.4084 22.9685 39.6399 23.2 39.9251 23.2H41.9917C42.2769 23.2 42.5084 22.9685 42.5084 22.6834V18.55C42.5084 17.6954 41.813 17 40.9584 17ZM41.4751 22.1666H40.4417V18.55C40.4417 18.2653 40.6737 18.0334 40.9584 18.0334C41.2431 18.0334 41.475 18.2653 41.475 18.55V22.1666H41.4751Z" fill="white"/>
<path d="M46.125 17C45.2704 17 44.575 17.6954 44.575 18.55V22.6834C44.575 22.9685 44.8064 23.2 45.0916 23.2H47.1582C47.4434 23.2 47.6749 22.9685 47.6749 22.6834V18.55C47.675 17.6954 46.9795 17 46.125 17ZM46.6416 22.1666H45.6082V18.55C45.6082 18.2653 45.8402 18.0334 46.1249 18.0334C46.4096 18.0334 46.6415 18.2653 46.6415 18.55V22.1666H46.6416Z" fill="white"/>
<path d="M48.7084 22.1667H38.375C38.0899 22.1667 37.8584 22.3981 37.8584 22.6833V24.75C37.8584 25.0352 38.0899 25.2667 38.375 25.2667H48.7084C48.9936 25.2667 49.225 25.0352 49.225 24.75V22.6834C49.225 22.3981 48.9936 22.1667 48.7084 22.1667ZM48.1917 24.2334H38.8917V23.2H48.1917V24.2334Z" fill="white"/>
<path d="M47.6749 24.2333H39.4082C39.1231 24.2333 38.8916 24.4648 38.8916 24.75V29.4005C38.8916 30.5398 39.8185 31.4667 40.9578 31.4667H46.1254C47.2647 31.4667 48.1916 30.5398 48.1916 29.4005V24.75C48.1915 24.4648 47.9601 24.2333 47.6749 24.2333ZM47.1582 29.4005C47.1582 29.9704 46.6953 30.4333 46.1259 30.4333H40.9577C40.3878 30.4333 39.9249 29.9704 39.9249 29.4005V25.2667H47.1582V29.4005Z" fill="white"/>
<path d="M44.575 30.4333H42.5083C42.2232 30.4333 41.9917 30.6648 41.9917 30.95V31.9833C41.9917 32.8379 42.6871 33.5333 43.5417 33.5333C44.3963 33.5333 45.0917 32.8379 45.0917 31.9833V30.95C45.0916 30.6648 44.8602 30.4333 44.575 30.4333ZM44.0583 31.9833C44.0583 32.268 43.8264 32.5 43.5417 32.5C43.257 32.5 43.0251 32.268 43.0251 31.9833V31.4667H44.0584V31.9833H44.0583Z" fill="white"/>
<path d="M43.5416 32.5C43.2565 32.5 43.025 32.7315 43.025 33.0167V44.3833C43.025 45.5231 42.0981 46.4499 40.9583 46.4499C39.8186 46.4499 38.8917 45.523 38.8917 44.3833V33.0167C38.8917 30.7376 37.0374 28.8833 34.7583 28.8833C34.4732 28.8833 34.2417 29.1148 34.2417 29.3999C34.2417 29.6851 34.4732 29.9166 34.7583 29.9166C36.468 29.9166 37.8583 31.3069 37.8583 33.0166V44.3832C37.8583 46.0929 39.2487 47.4832 40.9583 47.4832C42.668 47.4832 44.0583 46.0929 44.0583 44.3832V33.0167C44.0583 32.7315 43.8269 32.5 43.5416 32.5Z" fill="white"/>
</svg>
