<svg width="67" height="67" viewBox="0 0 67 67" fill="none" xmlns="http://www.w3.org/2000/svg">
<circle cx="33.5" cy="33.5" r="33.5" fill="#FF372D"/>
<g clip-path="url(#clip0)">
<path d="M32.0498 22.5734C32.0692 22.5731 32.0886 22.5715 32.1078 22.5687C32.9707 22.4559 33.8441 22.4479 34.7089 22.545C34.7717 22.551 34.8351 22.5439 34.8951 22.5241C34.955 22.5043 35.0102 22.4724 35.0572 22.4303C35.1042 22.3881 35.1419 22.3367 35.1681 22.2792C35.1942 22.2218 35.2081 22.1595 35.209 22.0964V18.8047C35.209 18.3261 35.0189 17.867 34.6805 17.5286C34.342 17.1901 33.883 17 33.4044 17C32.9257 17 32.4667 17.1901 32.1283 17.5286C31.7898 17.867 31.5997 18.3261 31.5997 18.8047V22.1222C31.6013 22.2412 31.6492 22.3549 31.7332 22.4391C31.8173 22.5234 31.9308 22.5715 32.0498 22.5734ZM32.501 18.8047C32.501 18.5654 32.5961 18.3359 32.7653 18.1666C32.9345 17.9974 33.164 17.9023 33.4033 17.9023C33.6426 17.9023 33.8722 17.9974 34.0414 18.1666C34.2106 18.3359 34.3057 18.5654 34.3057 18.8047V21.6043C33.7046 21.562 33.1012 21.5674 32.501 21.6205V18.8047Z" fill="white"/>
<path d="M34.7078 44.454C34.1198 44.5191 33.5275 44.5364 32.9367 44.5055C32.5438 44.4844 31.5989 44.2067 31.5989 44.8775V48.1953C31.5989 48.674 31.789 49.133 32.1275 49.4714C32.4659 49.8099 32.9249 50 33.4036 50C33.8822 50 34.3412 49.8099 34.6797 49.4714C35.0181 49.133 35.2083 48.674 35.2083 48.1953V44.9026C35.2074 44.8394 35.1935 44.7771 35.1673 44.7196C35.1412 44.6621 35.1034 44.6107 35.0564 44.5685C35.0094 44.5264 34.9541 44.4944 34.8941 44.4747C34.8341 44.455 34.7707 44.4479 34.7078 44.454ZM34.3057 48.1953C34.3057 48.4346 34.2106 48.6642 34.0414 48.8334C33.8721 49.0026 33.6426 49.0977 33.4033 49.0977C33.164 49.0977 32.9345 49.0026 32.7653 48.8334C32.596 48.6642 32.501 48.4346 32.501 48.1953V45.3795C33.1012 45.4325 33.7046 45.4379 34.3057 45.3957V48.1953Z" fill="white"/>
<path d="M40.2153 24.854C40.5843 25.1385 40.9349 25.4461 41.2651 25.7749C41.5499 26.061 41.8191 26.3622 42.0715 26.6773C42.1116 26.726 42.1613 26.7659 42.2177 26.7945C42.274 26.823 42.3356 26.8395 42.3986 26.8429C42.4616 26.8464 42.5247 26.8367 42.5838 26.8144C42.6428 26.7922 42.6967 26.758 42.7418 26.7139L45.0701 24.3856C45.4086 24.0471 45.5987 23.5881 45.5987 23.1094C45.5987 22.6307 45.4086 22.1717 45.0701 21.8332C44.7317 21.4948 44.2726 21.3046 43.7939 21.3046C43.3153 21.3046 42.8562 21.4948 42.5178 21.8332L40.1717 24.1793C40.1274 24.2251 40.0932 24.2796 40.0712 24.3393C40.0492 24.3991 40.04 24.4628 40.0441 24.5263C40.0482 24.5899 40.0656 24.6518 40.095 24.7083C40.1245 24.7647 40.1655 24.8144 40.2153 24.854ZM43.1564 22.4705C43.3283 22.3065 43.5568 22.215 43.7945 22.215C44.0321 22.215 44.2606 22.3065 44.4325 22.4705C44.6015 22.6399 44.6963 22.8694 44.6963 23.1086C44.6963 23.3479 44.6015 23.5773 44.4325 23.7467L42.4528 25.7265C42.2723 25.5202 42.0898 25.3238 41.9029 25.1368C41.6709 24.9048 41.4265 24.6808 41.1655 24.4614L43.1564 22.4705Z" fill="white"/>
<path d="M26.58 42.1679C26.2649 41.9157 25.9637 41.6466 25.6777 41.3617C25.349 41.0316 25.0415 40.6809 24.757 40.3119C24.7173 40.2621 24.6676 40.2211 24.6111 40.1916C24.5545 40.1621 24.4924 40.1448 24.4288 40.1407C24.3652 40.1367 24.3014 40.1461 24.2416 40.1682C24.1818 40.1903 24.1273 40.2247 24.0816 40.2691L21.7355 42.6152C21.397 42.9537 21.2069 43.4127 21.2069 43.8914C21.2069 44.37 21.397 44.8291 21.7355 45.1676C22.0739 45.506 22.533 45.6962 23.0117 45.6962C23.4903 45.6962 23.9494 45.506 24.2878 45.1676L26.6161 42.839C26.6602 42.7938 26.6945 42.7399 26.7167 42.6808C26.7389 42.6217 26.7486 42.5586 26.7452 42.4955C26.7418 42.4325 26.7254 42.3708 26.697 42.3144C26.6685 42.258 26.6287 42.2081 26.58 42.1679ZM23.6503 44.5292C23.4784 44.6933 23.2498 44.7849 23.0122 44.7849C22.7745 44.7849 22.546 44.6933 22.3741 44.5292C22.2052 44.3598 22.1103 44.1304 22.1103 43.8911C22.1103 43.6519 22.2052 43.4224 22.3741 43.253L24.3654 41.262C24.5853 41.5234 24.8112 41.7704 25.0404 41.9996C25.227 42.1862 25.424 42.37 25.63 42.5492L23.6503 44.5292Z" fill="white"/>
<path d="M48.0986 31.6953H44.7811C44.7173 31.6962 44.6544 31.7104 44.5965 31.7371C44.5386 31.7638 44.4868 31.8023 44.4447 31.8502C44.4025 31.898 44.3708 31.9542 44.3517 32.015C44.3326 32.0759 44.3264 32.1401 44.3336 32.2035C44.4468 33.0662 44.4549 33.9396 44.3575 34.8043C44.3515 34.8671 44.3585 34.9305 44.3782 34.9905C44.3979 35.0505 44.4298 35.1058 44.4719 35.1528C44.5141 35.1998 44.5655 35.2376 44.623 35.2638C44.6805 35.2899 44.7427 35.3038 44.8059 35.3047H48.0986C48.5773 35.3047 49.0363 35.1146 49.3748 34.7761C49.7132 34.4377 49.9033 33.9786 49.9033 33.5C49.9033 33.0214 49.7132 32.5623 49.3748 32.2239C49.0363 31.8854 48.5773 31.6953 48.0986 31.6953ZM48.0986 34.4023H45.2991C45.3176 34.1304 45.3272 33.8609 45.3272 33.5967C45.3272 33.2718 45.3122 32.9375 45.2828 32.5977H48.0986C48.338 32.5977 48.5675 32.6927 48.7367 32.8619C48.9059 33.0312 49.001 33.2607 49.001 33.5C49.001 33.7393 48.9059 33.9688 48.7367 34.1381C48.5675 34.3073 48.338 34.4023 48.0986 34.4023Z" fill="white"/>
<path d="M22.3367 35.1546C22.3791 35.1075 22.411 35.0519 22.4304 34.9915C22.4499 34.9311 22.4563 34.8673 22.4494 34.8043C22.352 33.9396 22.3601 33.0662 22.4734 32.2035C22.4805 32.1401 22.4743 32.0759 22.4552 32.015C22.436 31.9541 22.4043 31.8979 22.3622 31.8501C22.32 31.8022 22.2682 31.7637 22.2102 31.737C22.1523 31.7104 22.0893 31.6962 22.0255 31.6953H18.708C18.2294 31.6953 17.7703 31.8854 17.4319 32.2239C17.0935 32.5623 16.9033 33.0214 16.9033 33.5C16.9033 33.9786 17.0935 34.4377 17.4319 34.7761C17.7703 35.1146 18.2294 35.3047 18.708 35.3047H22.0016C22.0648 35.3046 22.1274 35.2912 22.1851 35.2654C22.2429 35.2395 22.2945 35.2018 22.3367 35.1546ZM21.5076 34.4023H18.708C18.4687 34.4023 18.2392 34.3073 18.07 34.1381C17.9007 33.9688 17.8057 33.7393 17.8057 33.5C17.8057 33.2607 17.9007 33.0312 18.07 32.8619C18.2392 32.6927 18.4687 32.5977 18.708 32.5977H21.5238C21.4944 32.9375 21.4795 33.2718 21.4795 33.5967C21.4795 33.8609 21.489 34.1304 21.5076 34.4023Z" fill="white"/>
<path d="M42.7245 40.2691C42.6789 40.2245 42.6244 40.1901 42.5646 40.1679C42.5047 40.1458 42.4409 40.1364 42.3773 40.1404C42.3136 40.1445 42.2515 40.1618 42.195 40.1913C42.1385 40.2209 42.0887 40.2619 42.0491 40.3119C41.7647 40.6809 41.4572 41.0315 41.1284 41.3617C40.8424 41.6465 40.5412 41.9156 40.2261 42.1679C40.1775 42.208 40.1377 42.2579 40.1093 42.3142C40.0809 42.3705 40.0645 42.432 40.061 42.495C40.0576 42.558 40.0672 42.621 40.0893 42.68C40.1114 42.7391 40.1455 42.7929 40.1895 42.8382L42.5178 45.1667C42.8562 45.5052 43.3153 45.6953 43.7939 45.6953C44.2726 45.6953 44.7316 45.5052 45.0701 45.1667C45.4086 44.8283 45.5987 44.3692 45.5987 43.8906C45.5987 43.4119 45.4086 42.9529 45.0701 42.6144L42.7245 40.2691ZM44.4325 44.5289C44.2607 44.6931 44.0321 44.7847 43.7945 44.7847C43.5568 44.7847 43.3282 44.6931 43.1564 44.5289L41.1766 42.5492C41.3829 42.3687 41.5796 42.1859 41.7662 41.9995C41.9957 41.7701 42.2215 41.5231 42.4412 41.2619L44.4325 43.253C44.5163 43.3368 44.5828 43.4363 44.6282 43.5457C44.6735 43.6552 44.6969 43.7726 44.6969 43.8911C44.6969 44.0096 44.6735 44.1269 44.6282 44.2364C44.5828 44.3459 44.5163 44.4454 44.4325 44.5292V44.5289Z" fill="white"/>
<path d="M24.0641 26.7133C24.1092 26.7575 24.163 26.7917 24.2221 26.8139C24.2812 26.8361 24.3442 26.8458 24.4073 26.8424C24.4703 26.8389 24.5319 26.8224 24.5882 26.7939C24.6445 26.7654 24.6943 26.7255 24.7344 26.6767C24.9867 26.3617 25.256 26.0604 25.5408 25.7744C25.8709 25.4457 26.2216 25.1383 26.5906 24.854C26.6405 24.8143 26.6814 24.7645 26.7109 24.708C26.7404 24.6514 26.7577 24.5893 26.7617 24.5257C26.7657 24.4621 26.7563 24.3983 26.7342 24.3385C26.712 24.2787 26.6776 24.2242 26.6332 24.1785L24.2871 21.8324C24.1195 21.6649 23.9205 21.5319 23.7016 21.4412C23.4826 21.3505 23.2479 21.3038 23.0109 21.3038C22.7739 21.3038 22.5392 21.3505 22.3202 21.4412C22.1013 21.5319 21.9023 21.6649 21.7347 21.8324C21.3963 22.1709 21.2061 22.63 21.2061 23.1086C21.2061 23.5873 21.3963 24.0463 21.7347 24.3848L24.0641 26.7133ZM22.3741 22.4708C22.4579 22.387 22.5574 22.3205 22.6669 22.2752C22.7763 22.2298 22.8937 22.2065 23.0122 22.2065C23.1307 22.2065 23.248 22.2298 23.3575 22.2752C23.467 22.3205 23.5665 22.387 23.6503 22.4708L25.6411 24.4616C25.3799 24.681 25.1363 24.9043 24.9038 25.1371C24.7168 25.324 24.5333 25.5212 24.3538 25.7267L22.3741 23.747C22.2903 23.6632 22.2238 23.5637 22.1785 23.4542C22.1331 23.3447 22.1098 23.2274 22.1098 23.1089C22.1098 22.9904 22.1331 22.873 22.1785 22.7635C22.2238 22.6541 22.2903 22.5546 22.3741 22.4708Z" fill="white"/>
<path d="M42.8457 33.5C42.8451 31.3122 42.077 29.1939 40.6753 27.5141C39.2735 25.8344 37.3269 24.6996 35.1745 24.3075C33.0221 23.9153 30.8004 24.2906 28.8963 25.3681C26.9922 26.4455 25.5264 28.1568 24.7542 30.2038C23.9546 32.3283 23.9546 34.6711 24.7542 36.7956C25.5261 38.8428 26.9918 40.5544 28.896 41.6321C30.8001 42.7098 33.0219 43.0853 35.1745 42.6932C37.327 42.3011 39.2737 41.1662 40.6755 39.4863C42.0773 37.8064 42.8453 35.6879 42.8457 33.5ZM25.0695 33.9511H33.0488V36.1856H25.4949C25.2524 35.4635 25.1093 34.7118 25.0695 33.9511ZM25.4952 30.8143H33.0491V33.0488H25.0695C25.1091 32.2882 25.2519 31.5364 25.4942 30.8143H25.4952ZM41.9434 33.5C41.9405 35.6602 41.1107 37.7375 39.6245 39.3052C38.1382 40.873 36.1082 41.8123 33.9512 41.9304V25.0695C36.1082 25.1876 38.1382 26.127 39.6245 27.6947C41.1107 29.2625 41.9405 31.3397 41.9434 33.5ZM33.0488 25.0695V26.7765H28.3922C29.7362 25.7498 31.3598 25.1547 33.0488 25.0695ZM27.3857 27.6778H33.0488V29.9122H25.8559C26.2414 29.0894 26.7581 28.3348 27.3857 27.6778ZM33.0488 37.0879V39.3224H27.3857C26.7579 38.6655 26.2411 37.9108 25.8556 37.0879H33.0488ZM33.0488 40.2247V41.9304C31.3598 41.8452 29.7362 41.2501 28.3922 40.2235L33.0488 40.2247Z" fill="white"/>
</g>
<defs>
<clipPath id="clip0">
<rect width="33" height="33" fill="white" transform="translate(17 17)"/>
</clipPath>
</defs>
</svg>
