<svg width="67" height="67" viewBox="0 0 67 67" fill="none" xmlns="http://www.w3.org/2000/svg">
<circle cx="33.5" cy="33.5" r="33.5" fill="#B20421"/>
<g clip-path="url(#clip0)">
<path d="M22.6444 18.9258C22.8565 18.7138 22.8565 18.371 22.6444 18.1589C22.4324 17.9469 22.0896 17.9469 21.8775 18.1589C15.7449 24.2915 15.7449 34.2701 21.8775 40.4027C21.9838 40.5085 22.1227 40.5616 22.261 40.5616C22.3993 40.5616 22.5387 40.5085 22.6444 40.4027C22.8565 40.1907 22.8565 39.8479 22.6444 39.6358C16.9349 33.9257 16.9349 24.6354 22.6444 18.9258Z" fill="white"/>
<path d="M44.1213 18.1589C43.9092 17.9469 43.5664 17.9469 43.3544 18.1589C43.1423 18.371 43.1423 18.7138 43.3544 18.9258C46.1161 21.6871 47.6369 25.3644 47.6369 29.2808C47.6369 33.1973 46.1161 36.8746 43.3544 39.6358C43.1423 39.8479 43.1423 40.1907 43.3544 40.4027C43.4601 40.5085 43.599 40.5616 43.7378 40.5616C43.8767 40.5616 44.0155 40.5085 44.1213 40.4027C47.0881 37.4365 48.7211 33.4869 48.7211 29.2808C48.7211 25.0747 47.0881 21.1252 44.1213 18.1589Z" fill="white"/>
<path d="M24.9462 21.2266C25.1582 21.0145 25.1582 20.6717 24.9462 20.4596C24.7341 20.2476 24.3913 20.2476 24.1793 20.4596C19.3152 25.3236 19.3152 33.238 24.1793 38.1014C24.285 38.2072 24.4239 38.2603 24.5627 38.2603C24.7016 38.2603 24.8404 38.2072 24.9462 38.1014C25.1582 37.8893 25.1582 37.5466 24.9462 37.3345C20.5052 32.8935 20.5052 25.6681 24.9462 21.2266Z" fill="white"/>
<path d="M41.8205 20.4596C41.6084 20.2476 41.2656 20.2476 41.0536 20.4596C40.8415 20.6717 40.8415 21.0145 41.0536 21.2266C45.4945 25.6675 45.4945 32.8935 41.0536 37.3345C40.8415 37.5466 40.8415 37.8893 41.0536 38.1014C41.1593 38.2072 41.2982 38.2603 41.437 38.2603C41.5759 38.2603 41.7147 38.2072 41.8205 38.1014C46.6845 33.238 46.6845 25.3236 41.8205 20.4596Z" fill="white"/>
<path d="M27.247 22.761C27.035 22.5489 26.6922 22.5489 26.4801 22.761C24.7413 24.4998 23.7834 26.8152 23.7834 29.2808C23.7834 31.7465 24.7413 34.0613 26.4801 35.8007C26.5859 35.9065 26.7247 35.9596 26.8636 35.9596C27.0024 35.9596 27.1413 35.9065 27.247 35.8007C27.4591 35.5886 27.4591 35.2459 27.247 35.0338C24.0747 31.8615 24.0747 26.7008 27.247 23.5284C27.4586 23.3164 27.4586 22.973 27.247 22.761Z" fill="white"/>
<path d="M39.5197 22.761C39.3076 22.5489 38.9649 22.5489 38.7528 22.761C38.5407 22.973 38.5407 23.3158 38.7528 23.5279C41.9251 26.7002 41.9251 31.8609 38.7528 35.0332C38.5407 35.2453 38.5407 35.5881 38.7528 35.8002C38.8586 35.9059 38.9974 35.9591 39.1363 35.9591C39.2751 35.9591 39.414 35.9059 39.5197 35.8002C41.2586 34.0613 42.2164 31.7459 42.2164 29.2803C42.2164 26.8147 41.2586 24.4998 39.5197 22.761Z" fill="white"/>
<path d="M32.9995 25.5933C30.9065 25.5933 29.2029 27.2969 29.2029 29.3899C29.2029 31.2985 30.6206 32.8784 32.4571 33.1431V49.4577C32.4571 49.7576 32.6996 50 32.9995 50C33.2994 50 33.5419 49.7576 33.5419 49.4577V33.1431C35.3783 32.8784 36.7961 31.2985 36.7961 29.3899C36.7961 27.2969 35.093 25.5933 32.9995 25.5933ZM32.9995 32.1017C31.5042 32.1017 30.2876 30.8852 30.2876 29.3899C30.2876 27.8945 31.5042 26.678 32.9995 26.678C34.4948 26.678 35.7114 27.8945 35.7114 29.3899C35.7114 30.8852 34.4948 32.1017 32.9995 32.1017Z" fill="white"/>
</g>
<defs>
<clipPath id="clip0">
<rect width="32" height="32" fill="white" transform="translate(17 18)"/>
</clipPath>
</defs>
</svg>
