<svg width="67" height="67" viewBox="0 0 67 67" fill="none" xmlns="http://www.w3.org/2000/svg">
<circle cx="33.5" cy="33.5" r="33.5" fill="#FF372D"/>
<g clip-path="url(#clip0)">
<path d="M22.6445 18.9258C22.8565 18.7138 22.8565 18.371 22.6445 18.1589C22.4324 17.9469 22.0896 17.9469 21.8776 18.1589C15.745 24.2915 15.745 34.2701 21.8776 40.4027C21.9839 40.5085 22.1227 40.5616 22.261 40.5616C22.3993 40.5616 22.5387 40.5085 22.6445 40.4027C22.8565 40.1907 22.8565 39.8479 22.6445 39.6358C16.9349 33.9257 16.9349 24.6354 22.6445 18.9258Z" fill="white"/>
<path d="M44.1214 18.1589C43.9093 17.9469 43.5665 17.9469 43.3545 18.1589C43.1424 18.371 43.1424 18.7138 43.3545 18.9258C46.1162 21.6871 47.637 25.3644 47.637 29.2808C47.637 33.1973 46.1162 36.8746 43.3545 39.6358C43.1424 39.8479 43.1424 40.1907 43.3545 40.4027C43.4602 40.5085 43.5991 40.5616 43.7379 40.5616C43.8768 40.5616 44.0156 40.5085 44.1214 40.4027C47.0881 37.4365 48.7212 33.4869 48.7212 29.2808C48.7212 25.0747 47.0881 21.1252 44.1214 18.1589Z" fill="white"/>
<path d="M24.9463 21.2266C25.1584 21.0145 25.1584 20.6717 24.9463 20.4596C24.7342 20.2476 24.3915 20.2476 24.1794 20.4596C19.3154 25.3236 19.3154 33.238 24.1794 38.1014C24.2852 38.2072 24.424 38.2603 24.5629 38.2603C24.7017 38.2603 24.8406 38.2072 24.9463 38.1014C25.1584 37.8893 25.1584 37.5466 24.9463 37.3345C20.5054 32.8935 20.5054 25.6681 24.9463 21.2266Z" fill="white"/>
<path d="M41.8206 20.4596C41.6086 20.2476 41.2658 20.2476 41.0537 20.4596C40.8416 20.6717 40.8416 21.0145 41.0537 21.2266C45.4947 25.6675 45.4947 32.8935 41.0537 37.3345C40.8416 37.5466 40.8416 37.8893 41.0537 38.1014C41.1595 38.2072 41.2983 38.2603 41.4372 38.2603C41.576 38.2603 41.7149 38.2072 41.8206 38.1014C46.6846 33.238 46.6846 25.3236 41.8206 20.4596Z" fill="white"/>
<path d="M27.2471 22.761C27.035 22.5489 26.6922 22.5489 26.4802 22.761C24.7413 24.4998 23.7835 26.8152 23.7835 29.2808C23.7835 31.7465 24.7413 34.0613 26.4802 35.8007C26.5859 35.9065 26.7248 35.9596 26.8636 35.9596C27.0025 35.9596 27.1413 35.9065 27.2471 35.8007C27.4591 35.5886 27.4591 35.2459 27.2471 35.0338C24.0747 31.8615 24.0747 26.7008 27.2471 23.5284C27.4586 23.3164 27.4586 22.973 27.2471 22.761Z" fill="white"/>
<path d="M39.5199 22.761C39.3078 22.5489 38.965 22.5489 38.753 22.761C38.5409 22.973 38.5409 23.3158 38.753 23.5279C41.9253 26.7002 41.9253 31.8609 38.753 35.0332C38.5409 35.2453 38.5409 35.5881 38.753 35.8002C38.8587 35.9059 38.9976 35.9591 39.1364 35.9591C39.2753 35.9591 39.4141 35.9059 39.5199 35.8002C41.2587 34.0613 42.2166 31.7459 42.2166 29.2803C42.2166 26.8147 41.2587 24.4998 39.5199 22.761Z" fill="white"/>
<path d="M32.9995 25.5933C30.9064 25.5933 29.2029 27.2969 29.2029 29.3899C29.2029 31.2985 30.6206 32.8784 32.4571 33.1431V49.4577C32.4571 49.7576 32.6995 50 32.9995 50C33.2994 50 33.5418 49.7576 33.5418 49.4577V33.1431C35.3783 32.8784 36.7961 31.2985 36.7961 29.3899C36.7961 27.2969 35.093 25.5933 32.9995 25.5933ZM32.9995 32.1017C31.5041 32.1017 30.2876 30.8852 30.2876 29.3899C30.2876 27.8945 31.5041 26.678 32.9995 26.678C34.4948 26.678 35.7113 27.8945 35.7113 29.3899C35.7113 30.8852 34.4948 32.1017 32.9995 32.1017Z" fill="white"/>
</g>
<defs>
<clipPath id="clip0">
<rect width="32" height="32" fill="white" transform="translate(17 18)"/>
</clipPath>
</defs>
</svg>
