<svg width="152" height="59" viewBox="0 0 152 59" fill="none" xmlns="http://www.w3.org/2000/svg">
<g filter="url(#filter0_d)">
<path d="M9.15625 0.8125H12.2812L13.0625 43H9.9375V14.0938L7.59375 40.6562H6.03125L3.6875 14.0938V43H0.5625L1.34375 0.8125H4.46875L6.8125 29.7188L9.15625 0.8125ZM24.7812 43H21.6562L21.168 34.8945H18.9951L18.5312 43H15.4062L18.5312 5.5H21.6562L24.7812 43ZM20.9971 32.3555L20.0938 13.3125L19.166 32.3555H20.9971ZM33.375 7.84375H30.25V21.9062H33.375V24.25H30.25V40.6562H33.375V43H27.125V5.5H33.375V7.84375ZM44.3125 18.7812H41.1875V9.01562C41.1875 8.42969 41.0654 8.02279 40.8213 7.79492C40.5771 7.56706 40.3086 7.45312 40.0156 7.45312C39.7227 7.45312 39.4541 7.56706 39.21 7.79492C38.9658 8.02279 38.8438 8.42969 38.8438 9.01562C38.8438 10.7572 38.9251 12.3604 39.0879 13.8252C39.2507 15.29 39.4622 16.641 39.7227 17.8779C39.9831 19.1149 40.276 20.2461 40.6016 21.2715C40.9271 22.2806 41.2526 23.2083 41.5781 24.0547C41.8385 24.722 42.1234 25.4951 42.4326 26.374C42.7581 27.2529 43.0592 28.3027 43.3359 29.5234C43.6126 30.7441 43.8405 32.1683 44.0195 33.7959C44.2148 35.4235 44.3125 37.3197 44.3125 39.4844C44.3125 40.168 44.1904 40.762 43.9463 41.2666C43.7021 41.7549 43.3766 42.1618 42.9697 42.4873C42.5628 42.7965 42.099 43.0244 41.5781 43.1709C41.0736 43.3174 40.5527 43.3906 40.0156 43.3906C39.4785 43.3906 38.9495 43.3174 38.4287 43.1709C37.9242 43.0244 37.4684 42.7965 37.0615 42.4873C36.6546 42.1618 36.3291 41.7549 36.085 41.2666C35.8408 40.762 35.7188 40.168 35.7188 39.4844V29.7188H38.8438V39.4844C38.8438 40.0703 38.9658 40.4772 39.21 40.7051C39.4541 40.9329 39.7227 41.0469 40.0156 41.0469C40.3086 41.0469 40.5771 40.9329 40.8213 40.7051C41.0654 40.4772 41.1875 40.0703 41.1875 39.4844C41.1875 37.3848 41.0817 35.5456 40.8701 33.9668C40.6748 32.3717 40.4225 30.972 40.1133 29.7676C39.804 28.5469 39.4622 27.4808 39.0879 26.5693C38.7298 25.6579 38.3962 24.8197 38.0869 24.0547C37.7777 23.306 37.4766 22.4515 37.1836 21.4912C36.9069 20.5309 36.6546 19.4404 36.4268 18.2197C36.2152 16.999 36.0443 15.6318 35.9141 14.1182C35.7839 12.5882 35.7188 10.8874 35.7188 9.01562C35.7188 8.33203 35.8408 7.74609 36.085 7.25781C36.3291 6.76953 36.6546 6.37077 37.0615 6.06152C37.4684 5.736 37.9242 5.5 38.4287 5.35352C38.9495 5.19076 39.4785 5.10938 40.0156 5.10938C40.5527 5.10938 41.0736 5.19076 41.5781 5.35352C42.099 5.5 42.5628 5.736 42.9697 6.06152C43.3766 6.37077 43.7021 6.76953 43.9463 7.25781C44.1904 7.74609 44.3125 8.33203 44.3125 9.01562V18.7812ZM55.6406 5.5V7.84375H52.5156V43H49.3906V7.84375H46.2656V5.5H55.6406ZM66.1875 21.125C66.1875 21.9062 65.9922 22.5085 65.6016 22.9316C65.2109 23.3548 64.625 23.6559 63.8438 23.835C64.625 24.0465 65.2109 24.3639 65.6016 24.7871C65.9922 25.2103 66.1875 25.8125 66.1875 26.5938V43H63.0625V26.5938C63.0625 26.2031 63.0137 25.902 62.916 25.6904C62.8184 25.4788 62.6719 25.3242 62.4766 25.2266C62.2812 25.1289 62.0371 25.0719 61.7441 25.0557C61.4512 25.0394 61.1094 25.0312 60.7188 25.0312V43H57.5938V5.5H61.1094C62.1673 5.5 63.0706 5.58952 63.8193 5.76855C64.5843 5.93132 65.1702 6.23242 65.5771 6.67188C65.984 7.09505 66.1875 7.74609 66.1875 8.625V21.125ZM63.0625 9.40625C63.0625 9.01562 63.0137 8.71452 62.916 8.50293C62.8184 8.29134 62.6719 8.13672 62.4766 8.03906C62.2812 7.94141 62.0371 7.88444 61.7441 7.86816C61.4512 7.85189 61.1094 7.84375 60.7188 7.84375V22.6875C61.1094 22.6875 61.4512 22.6794 61.7441 22.6631C62.0371 22.6468 62.2812 22.5898 62.4766 22.4922C62.6719 22.3945 62.8184 22.2399 62.916 22.0283C63.0137 21.8167 63.0625 21.5156 63.0625 21.125V9.40625ZM78.6875 39.4844C78.6875 40.168 78.5573 40.762 78.2969 41.2666C78.0527 41.7549 77.7191 42.1618 77.2959 42.4873C76.8727 42.8128 76.3926 43.0488 75.8555 43.1953C75.3184 43.3581 74.765 43.4395 74.1953 43.4395C73.5931 43.4395 72.999 43.3499 72.4131 43.1709C71.8271 43.0081 71.3063 42.764 70.8506 42.4385C70.3949 42.0967 70.0205 41.6816 69.7275 41.1934C69.4508 40.6888 69.3125 40.1191 69.3125 39.4844V9.01562C69.3125 8.39714 69.4508 7.85189 69.7275 7.37988C70.0205 6.8916 70.3949 6.4847 70.8506 6.15918C71.3226 5.83366 71.8516 5.58952 72.4375 5.42676C73.0234 5.24772 73.6175 5.1582 74.2197 5.1582C74.7894 5.1582 75.3428 5.23958 75.8799 5.40234C76.417 5.54883 76.889 5.78483 77.2959 6.11035C77.7191 6.4196 78.0527 6.81836 78.2969 7.30664C78.5573 7.79492 78.6875 8.36458 78.6875 9.01562V39.4844ZM75.5625 9.01562C75.5625 8.46224 75.4242 8.07161 75.1475 7.84375C74.887 7.59961 74.5778 7.47754 74.2197 7.47754C74.0081 7.47754 73.7965 7.51823 73.585 7.59961C73.3734 7.66471 73.1781 7.77051 72.999 7.91699C72.8363 8.0472 72.6979 8.20996 72.584 8.40527C72.4863 8.58431 72.4375 8.78776 72.4375 9.01562V39.4844C72.4375 39.7122 72.4863 39.9238 72.584 40.1191C72.6979 40.3145 72.8363 40.4772 72.999 40.6074C73.1781 40.7376 73.3652 40.8434 73.5605 40.9248C73.7721 40.9899 73.9837 41.0225 74.1953 41.0225C74.5534 41.0225 74.8708 40.9085 75.1475 40.6807C75.4242 40.4365 75.5625 40.0378 75.5625 39.4844V9.01562ZM90.748 0.8125V40.6562H93.873V43H87.623V0.8125H90.748ZM100.514 5.5V43H97.3887V5.5H100.514ZM107.154 39.4844C107.154 40.0703 107.276 40.4772 107.521 40.7051C107.765 40.9329 108.033 41.0469 108.326 41.0469C108.619 41.0469 108.888 40.9329 109.132 40.7051C109.376 40.4772 109.498 40.0703 109.498 39.4844V26.5938H108.717V24.25H112.623V39.4844C112.623 40.168 112.501 40.762 112.257 41.2666C112.013 41.7549 111.687 42.1618 111.28 42.4873C110.873 42.7965 110.41 43.0244 109.889 43.1709C109.384 43.3174 108.863 43.3906 108.326 43.3906C107.789 43.3906 107.26 43.3174 106.739 43.1709C106.235 43.0244 105.779 42.7965 105.372 42.4873C104.965 42.1618 104.64 41.7549 104.396 41.2666C104.151 40.762 104.029 40.168 104.029 39.4844V8.625C104.029 7.94141 104.151 7.35547 104.396 6.86719C104.64 6.36263 104.965 5.95573 105.372 5.64648C105.779 5.32096 106.235 5.08496 106.739 4.93848C107.26 4.79199 107.789 4.71875 108.326 4.71875C108.863 4.71875 109.384 4.79199 109.889 4.93848C110.41 5.08496 110.873 5.32096 111.28 5.64648C111.687 5.95573 112.013 6.35449 112.257 6.84277C112.501 7.33105 112.623 7.91699 112.623 8.60059V21.125H109.498V8.60059C109.498 8.01465 109.376 7.61589 109.132 7.4043C108.888 7.17643 108.619 7.0625 108.326 7.0625C108.033 7.0625 107.765 7.17643 107.521 7.4043C107.276 7.61589 107.154 8.01465 107.154 8.60059V39.4844ZM121.998 5.5H125.123V43H121.998V24.7871H118.873V43H115.748V5.5H118.873V22.3457H121.998V5.5ZM136.451 5.5V7.84375H133.326V43H130.201V7.84375H127.076V5.5H136.451Z" fill="url(#paint0_linear)"/>
</g>
<defs>
<filter id="filter0_d" x="0.5625" y="0.8125" width="150.889" height="57.627" filterUnits="userSpaceOnUse" color-interpolation-filters="sRGB">
<feFlood flood-opacity="0" result="BackgroundImageFix"/>
<feColorMatrix in="SourceAlpha" type="matrix" values="0 0 0 0 0 0 0 0 0 0 0 0 0 0 0 0 0 0 127 0"/>
<feOffset dx="10" dy="10"/>
<feGaussianBlur stdDeviation="2.5"/>
<feColorMatrix type="matrix" values="0 0 0 0 0 0 0 0 0 0 0 0 0 0 0 0 0 0 0.15 0"/>
<feBlend mode="normal" in2="BackgroundImageFix" result="effect1_dropShadow"/>
<feBlend mode="normal" in="SourceGraphic" in2="effect1_dropShadow" result="shape"/>
</filter>
<linearGradient id="paint0_linear" x1="-0.999998" y1="23" x2="159" y2="22" gradientUnits="userSpaceOnUse">
<stop stop-color="#8C8C8C"/>
<stop offset="0.317708" stop-color="white"/>
<stop offset="0.697917" stop-color="#9D9D9D"/>
<stop offset="1" stop-color="#6A6A6A"/>
</linearGradient>
</defs>
</svg>
