<svg width="206" height="76" viewBox="0 0 206 76" fill="none" xmlns="http://www.w3.org/2000/svg">
<g filter="url(#filter0_d)">
<path d="M12.2188 0.9375H16.5938L17.6875 60H13.3125V19.5312L10.0312 56.7188H7.84375L4.5625 19.5312V60H0.1875L1.28125 0.9375H5.65625L8.9375 41.4062L12.2188 0.9375ZM34.0938 60H29.7188L29.0352 48.6523H25.9932L25.3438 60H20.9688L25.3438 7.5H29.7188L34.0938 60ZM28.7959 45.0977L27.5312 18.4375L26.2324 45.0977H28.7959ZM46.125 10.7812H41.75V30.4688H46.125V33.75H41.75V56.7188H46.125V60H37.375V7.5H46.125V10.7812ZM61.4375 26.0938H57.0625V12.4219C57.0625 11.6016 56.8916 11.0319 56.5498 10.7129C56.208 10.3939 55.832 10.2344 55.4219 10.2344C55.0117 10.2344 54.6357 10.3939 54.2939 10.7129C53.9521 11.0319 53.7812 11.6016 53.7812 12.4219C53.7812 14.86 53.8952 17.1045 54.123 19.1553C54.3509 21.2061 54.6471 23.0973 55.0117 24.8291C55.3763 26.5609 55.7865 28.1445 56.2422 29.5801C56.6979 30.9928 57.1536 32.2917 57.6094 33.4766C57.974 34.4108 58.3727 35.4932 58.8057 36.7236C59.2614 37.9541 59.6829 39.4238 60.0703 41.1328C60.4577 42.8418 60.7767 44.8356 61.0273 47.1143C61.3008 49.3929 61.4375 52.0475 61.4375 55.0781C61.4375 56.0352 61.2666 56.8669 60.9248 57.5732C60.583 58.2568 60.1273 58.8265 59.5576 59.2822C58.988 59.7152 58.3385 60.0342 57.6094 60.2393C56.903 60.4443 56.1738 60.5469 55.4219 60.5469C54.6699 60.5469 53.9294 60.4443 53.2002 60.2393C52.4938 60.0342 51.8558 59.7152 51.2861 59.2822C50.7165 58.8265 50.2607 58.2568 49.9189 57.5732C49.5771 56.8669 49.4062 56.0352 49.4062 55.0781V41.4062H53.7812V55.0781C53.7812 55.8984 53.9521 56.4681 54.2939 56.7871C54.6357 57.1061 55.0117 57.2656 55.4219 57.2656C55.832 57.2656 56.208 57.1061 56.5498 56.7871C56.8916 56.4681 57.0625 55.8984 57.0625 55.0781C57.0625 52.1387 56.9144 49.5638 56.6182 47.3535C56.3447 45.1204 55.9915 43.1608 55.5586 41.4746C55.1257 39.7656 54.6471 38.2731 54.123 36.9971C53.6217 35.721 53.1546 34.5475 52.7217 33.4766C52.2887 32.4284 51.8672 31.2321 51.457 29.8877C51.0697 28.5433 50.7165 27.0166 50.3975 25.3076C50.1012 23.5986 49.862 21.6846 49.6797 19.5654C49.4974 17.4235 49.4062 15.0423 49.4062 12.4219C49.4062 11.4648 49.5771 10.6445 49.9189 9.96094C50.2607 9.27734 50.7165 8.71908 51.2861 8.28613C51.8558 7.8304 52.4938 7.5 53.2002 7.29492C53.9294 7.06706 54.6699 6.95312 55.4219 6.95312C56.1738 6.95312 56.903 7.06706 57.6094 7.29492C58.3385 7.5 58.988 7.8304 59.5576 8.28613C60.1273 8.71908 60.583 9.27734 60.9248 9.96094C61.2666 10.6445 61.4375 11.4648 61.4375 12.4219V26.0938ZM77.2969 7.5V10.7812H72.9219V60H68.5469V10.7812H64.1719V7.5H77.2969ZM92.0625 29.375C92.0625 30.4688 91.7891 31.3118 91.2422 31.9043C90.6953 32.4967 89.875 32.9183 88.7812 33.1689C89.875 33.4652 90.6953 33.9095 91.2422 34.502C91.7891 35.0944 92.0625 35.9375 92.0625 37.0312V60H87.6875V37.0312C87.6875 36.4844 87.6191 36.0628 87.4824 35.7666C87.3457 35.4704 87.1406 35.2539 86.8672 35.1172C86.5938 34.9805 86.252 34.9007 85.8418 34.8779C85.4316 34.8551 84.9531 34.8438 84.4062 34.8438V60H80.0312V7.5H84.9531C86.4342 7.5 87.6989 7.62533 88.7471 7.87598C89.818 8.10384 90.6383 8.52539 91.208 9.14062C91.7777 9.73307 92.0625 10.6445 92.0625 11.875V29.375ZM87.6875 12.9688C87.6875 12.4219 87.6191 12.0003 87.4824 11.7041C87.3457 11.4079 87.1406 11.1914 86.8672 11.0547C86.5938 10.918 86.252 10.8382 85.8418 10.8154C85.4316 10.7926 84.9531 10.7812 84.4062 10.7812V31.5625C84.9531 31.5625 85.4316 31.5511 85.8418 31.5283C86.252 31.5055 86.5938 31.4258 86.8672 31.2891C87.1406 31.1523 87.3457 30.9359 87.4824 30.6396C87.6191 30.3434 87.6875 29.9219 87.6875 29.375V12.9688ZM109.562 55.0781C109.562 56.0352 109.38 56.8669 109.016 57.5732C108.674 58.2568 108.207 58.8265 107.614 59.2822C107.022 59.738 106.35 60.0684 105.598 60.2734C104.846 60.5013 104.071 60.6152 103.273 60.6152C102.43 60.6152 101.599 60.4899 100.778 60.2393C99.958 60.0114 99.2288 59.6696 98.5908 59.2139C97.9528 58.7354 97.4287 58.1543 97.0186 57.4707C96.6312 56.7643 96.4375 55.9668 96.4375 55.0781V12.4219C96.4375 11.556 96.6312 10.7926 97.0186 10.1318C97.4287 9.44824 97.9528 8.87858 98.5908 8.42285C99.2516 7.96712 99.9922 7.62533 100.812 7.39746C101.633 7.14681 102.465 7.02148 103.308 7.02148C104.105 7.02148 104.88 7.13542 105.632 7.36328C106.384 7.56836 107.045 7.89876 107.614 8.35449C108.207 8.78743 108.674 9.3457 109.016 10.0293C109.38 10.7129 109.562 11.5104 109.562 12.4219V55.0781ZM105.188 12.4219C105.188 11.6471 104.994 11.1003 104.606 10.7812C104.242 10.4395 103.809 10.2686 103.308 10.2686C103.011 10.2686 102.715 10.3255 102.419 10.4395C102.123 10.5306 101.849 10.6787 101.599 10.8838C101.371 11.0661 101.177 11.2939 101.018 11.5674C100.881 11.818 100.812 12.1029 100.812 12.4219V55.0781C100.812 55.3971 100.881 55.6934 101.018 55.9668C101.177 56.2402 101.371 56.4681 101.599 56.6504C101.849 56.8327 102.111 56.9808 102.385 57.0947C102.681 57.1859 102.977 57.2314 103.273 57.2314C103.775 57.2314 104.219 57.0719 104.606 56.7529C104.994 56.4111 105.188 55.8529 105.188 55.0781V12.4219ZM126.447 0.9375V56.7188H130.822V60H122.072V0.9375H126.447ZM140.119 7.5V60H135.744V7.5H140.119ZM149.416 55.0781C149.416 55.8984 149.587 56.4681 149.929 56.7871C150.271 57.1061 150.646 57.2656 151.057 57.2656C151.467 57.2656 151.843 57.1061 152.185 56.7871C152.526 56.4681 152.697 55.8984 152.697 55.0781V37.0312H151.604V33.75H157.072V55.0781C157.072 56.0352 156.901 56.8669 156.56 57.5732C156.218 58.2568 155.762 58.8265 155.192 59.2822C154.623 59.7152 153.973 60.0342 153.244 60.2393C152.538 60.4443 151.809 60.5469 151.057 60.5469C150.305 60.5469 149.564 60.4443 148.835 60.2393C148.129 60.0342 147.491 59.7152 146.921 59.2822C146.351 58.8265 145.896 58.2568 145.554 57.5732C145.212 56.8669 145.041 56.0352 145.041 55.0781V11.875C145.041 10.918 145.212 10.0977 145.554 9.41406C145.896 8.70768 146.351 8.13802 146.921 7.70508C147.491 7.24935 148.129 6.91895 148.835 6.71387C149.564 6.50879 150.305 6.40625 151.057 6.40625C151.809 6.40625 152.538 6.50879 153.244 6.71387C153.973 6.91895 154.623 7.24935 155.192 7.70508C155.762 8.13802 156.218 8.69629 156.56 9.37988C156.901 10.0635 157.072 10.8838 157.072 11.8408V29.375H152.697V11.8408C152.697 11.0205 152.526 10.4622 152.185 10.166C151.843 9.84701 151.467 9.6875 151.057 9.6875C150.646 9.6875 150.271 9.84701 149.929 10.166C149.587 10.4622 149.416 11.0205 149.416 11.8408V55.0781ZM170.197 7.5H174.572V60H170.197V34.502H165.822V60H161.447V7.5H165.822V31.084H170.197V7.5ZM190.432 7.5V10.7812H186.057V60H181.682V10.7812H177.307V7.5H190.432Z" fill="white"/>
</g>
<defs>
<filter id="filter0_d" x="0.1875" y="0.9375" width="205.244" height="74.6777" filterUnits="userSpaceOnUse" color-interpolation-filters="sRGB">
<feFlood flood-opacity="0" result="BackgroundImageFix"/>
<feColorMatrix in="SourceAlpha" type="matrix" values="0 0 0 0 0 0 0 0 0 0 0 0 0 0 0 0 0 0 127 0"/>
<feOffset dx="10" dy="10"/>
<feGaussianBlur stdDeviation="2.5"/>
<feColorMatrix type="matrix" values="0 0 0 0 0 0 0 0 0 0 0 0 0 0 0 0 0 0 0.15 0"/>
<feBlend mode="normal" in2="BackgroundImageFix" result="effect1_dropShadow"/>
<feBlend mode="normal" in="SourceGraphic" in2="effect1_dropShadow" result="shape"/>
</filter>
</defs>
</svg>
